<svg width="194" height="39" viewBox="0 0 194 39" fill="none" xmlns="http://www.w3.org/2000/svg">
<path d="M32.5437 37.8491L38.417 35.8847L33.5087 13.0384L30.8751 10.1309L26.7701 28.8714L32.5437 37.8491Z" fill="#878FE8"/>
<path d="M14.8178 25.2904C11.527 27.8139 7.15366 29.5622 2.79825 30.5981L2.01468 33.4539C2.76232 33.2839 3.51633 33.0935 4.2744 32.8813C11.2147 30.9406 17.0671 27.6202 20.6766 23.9555L18.3896 21.37C23.298 20.8191 28.0805 18.3762 28.0805 18.3762C28.0805 18.3762 26.9359 24.466 24.7109 29.637L23.2272 26.8381C19.0863 30.7968 12.6583 34.3491 5.0968 36.4637C3.6873 36.8586 2.29055 37.1877 0.916992 37.4548C0.916992 37.4548 12.5216 38.5577 23.2719 32.4474C20.7664 35.0936 17.3771 37.3046 13.8157 38.9999L32.5437 37.8491L30.8752 10.1309H24.9978V13.4084H23.8549V10.1309H13.8946V13.4084H12.7517V10.1309H8.41479L3.48503 28.095C7.59761 27.548 11.4349 26.5748 14.8178 25.2904Z" fill="#404EED"/>
<path d="M14.6645 13.4079V6.75957C14.6645 3.72358 16.894 1.26207 19.6446 1.26207C22.3947 1.26207 24.6248 3.72358 24.6248 6.75957V13.4079H25.7677V6.75957C25.7677 3.03216 23.0212 0 19.6446 0C16.2681 0 13.5216 3.03216 13.5216 6.75957V13.4079H14.6645Z" fill="#878FE8"/>
<path d="M67.7045 6.31875V11.4188H56.8295V17.2313H65.2295V22.1063H56.8295V32.8313H50.417V6.31875H67.7045Z" fill="#404EED"/>
<path d="M84.6105 32.8313L78.873 22.8188H77.4105V32.8313H70.998V6.31875H81.948C84.048 6.31875 85.823 6.68125 87.273 7.40625C88.723 8.13125 89.8105 9.13125 90.5355 10.4063C91.2605 11.6563 91.623 13.0938 91.623 14.7188C91.623 16.6438 91.0855 18.2813 90.0105 19.6313C88.9605 20.9813 87.423 21.9063 85.398 22.4063L91.698 32.8313H84.6105ZM77.4105 18.4313H81.3855C82.6605 18.4313 83.598 18.1563 84.198 17.6063C84.798 17.0313 85.098 16.1938 85.098 15.0938C85.098 14.0438 84.7855 13.2188 84.1605 12.6188C83.5605 12.0188 82.6355 11.7188 81.3855 11.7188H77.4105V18.4313Z" fill="#404EED"/>
<path d="M101.251 6.31875V32.8313H94.8384V6.31875H101.251Z" fill="#404EED"/>
<path d="M129.528 19.5188C129.528 22.1188 128.966 24.4313 127.841 26.4563C126.741 28.4563 125.141 30.0188 123.041 31.1438C120.966 32.2688 118.516 32.8313 115.691 32.8313H105.678V6.31875H115.691C118.541 6.31875 121.003 6.86875 123.078 7.96875C125.153 9.06875 126.741 10.6188 127.841 12.6188C128.966 14.6188 129.528 16.9188 129.528 19.5188ZM115.128 27.0938C117.628 27.0938 119.566 26.4313 120.941 25.1063C122.341 23.7813 123.041 21.9188 123.041 19.5188C123.041 17.1188 122.341 15.2563 120.941 13.9313C119.566 12.6063 117.628 11.9438 115.128 11.9438H112.091V27.0938H115.128Z" fill="#404EED"/>
<path d="M145.781 5.90625C148.281 5.90625 150.543 6.49375 152.568 7.66875C154.618 8.81875 156.231 10.4313 157.406 12.5063C158.581 14.5563 159.168 16.8813 159.168 19.4813C159.168 22.0813 158.568 24.4188 157.368 26.4938C156.193 28.5688 154.581 30.1938 152.531 31.3688C150.506 32.5188 148.256 33.0938 145.781 33.0938C143.306 33.0938 141.043 32.5188 138.993 31.3688C136.968 30.1938 135.356 28.5688 134.156 26.4938C132.981 24.4188 132.393 22.0813 132.393 19.4813C132.393 16.8813 132.981 14.5563 134.156 12.5063C135.356 10.4313 136.968 8.81875 138.993 7.66875C141.043 6.49375 143.306 5.90625 145.781 5.90625ZM145.781 11.8688C143.681 11.8688 142.006 12.5563 140.756 13.9313C139.531 15.2813 138.918 17.1313 138.918 19.4813C138.918 21.8063 139.531 23.6563 140.756 25.0313C142.006 26.4063 143.681 27.0938 145.781 27.0938C147.856 27.0938 149.518 26.4063 150.768 25.0313C152.018 23.6563 152.643 21.8063 152.643 19.4813C152.643 17.1563 152.018 15.3063 150.768 13.9313C149.543 12.5563 147.881 11.8688 145.781 11.8688Z" fill="#404EED"/>
<path d="M192.583 6.50625V32.8313H186.171V16.3688L180.471 32.8313H174.921L169.183 16.3313V32.8313H162.771V6.50625H170.608L177.771 24.8438L184.783 6.50625H192.583Z" fill="#404EED"/>
</svg>
